<?xml version="1.0" encoding="UTF-8" standalone="no"?>
<!-- Generator: Adobe Illustrator 21.1.0, SVG Export Plug-In . SVG Version: 6.00 Build 0)  -->

<svg
   xmlns:dc="http://purl.org/dc/elements/1.1/"
   xmlns:cc="http://creativecommons.org/ns#"
   xmlns:rdf="http://www.w3.org/1999/02/22-rdf-syntax-ns#"
   xmlns:svg="http://www.w3.org/2000/svg"
   xmlns="http://www.w3.org/2000/svg"
   xmlns:sodipodi="http://sodipodi.sourceforge.net/DTD/sodipodi-0.dtd"
   xmlns:inkscape="http://www.inkscape.org/namespaces/inkscape"
   version="1.1"
   id="Capa_1"
   x="0px"
   y="0px"
   viewBox="0 0 300 85"
   style="enable-background:new 0 0 300 85;"
   xml:space="preserve"
   sodipodi:docname="mach-sf.svg"
   inkscape:version="0.92.4 (5da689c313, 2019-01-14)"><metadata
   id="metadata45"><rdf:RDF><cc:Work
       rdf:about=""><dc:format>image/svg+xml</dc:format><dc:type
         rdf:resource="http://purl.org/dc/dcmitype/StillImage" /><dc:title></dc:title></cc:Work></rdf:RDF></metadata><defs
   id="defs43" /><sodipodi:namedview
   pagecolor="#ffffff"
   bordercolor="#666666"
   borderopacity="1"
   objecttolerance="10"
   gridtolerance="10"
   guidetolerance="10"
   inkscape:pageopacity="0"
   inkscape:pageshadow="2"
   inkscape:window-width="1600"
   inkscape:window-height="1201"
   id="namedview41"
   showgrid="false"
   showguides="true"
   inkscape:guide-bbox="true"
   inkscape:zoom="1.4533333"
   inkscape:cx="163.95068"
   inkscape:cy="52.8211"
   inkscape:window-x="-9"
   inkscape:window-y="-9"
   inkscape:window-maximized="1"
   inkscape:current-layer="Capa_1"><sodipodi:guide
     position="276.35549,130.39309"
     orientation="1,0"
     id="guide854"
     inkscape:locked="false" /><sodipodi:guide
     position="-31.138647,18.488572"
     orientation="0,1"
     id="guide856"
     inkscape:locked="false" /><sodipodi:guide
     position="-29.192482,66.656167"
     orientation="0,1"
     id="guide858"
     inkscape:locked="false" /><sodipodi:guide
     position="20.434737,123.58151"
     orientation="1,0"
     id="guide817"
     inkscape:locked="false" /></sodipodi:namedview>
<style
   type="text/css"
   id="style2">
	.st0{fill:#3964C7;}
	.st1{fill:#12203F;}
</style>

<path
   inkscape:connector-curvature="0"
   style="clip-rule:evenodd;fill:#613dd2;fill-rule:evenodd;stroke-width:0.42507163"
   d="m 79.294708,17.408667 c 0.504135,-0.194091 1.01379,-0.288195 1.527705,-0.288195 0.365983,0 0.735799,0.04902 1.103909,0.145078 0.914755,0.260749 1.652253,0.76852 2.215045,1.521356 0.562372,0.733231 0.842924,1.570371 0.842924,2.513375 V 63.82947 c 0,1.15492 -0.411047,2.135133 -1.230165,2.938941 -0.794456,0.823367 -1.767441,1.239091 -2.914289,1.239091 -1.148119,0 -2.133008,-0.415724 -2.952543,-1.239091 C 77.069667,65.964603 76.658958,64.98439 76.658958,63.82947 V 36.302129 c 0,0 -13.280979,22.071418 -13.333513,22.155753 -0.383461,0.63714 -0.984933,1.078282 -1.650643,1.38399 -0.511912,0.239319 -1.084185,0.372785 -1.683706,0.372785 -0.603432,0 -1.173747,-0.133466 -1.687617,-0.372785 -0.663751,-0.305708 -1.271048,-0.733117 -1.648683,-1.38008 C 56.588616,58.351995 43.321273,36.302129 43.321273,36.302129 V 63.82947 c 0,1.15492 -0.408748,2.135133 -1.230199,2.938941 -0.819457,0.823367 -1.80439,1.239091 -2.948929,1.239091 -1.150375,0 -2.12168,-0.415724 -2.917799,-1.239091 C 35.404872,65.964603 34.994164,64.98439 34.994164,63.82947 V 21.300281 c 0,-0.943004 0.280289,-1.780144 0.842828,-2.513375 0.562539,-0.752836 1.302205,-1.260607 2.215115,-1.521356 0.371784,-0.09606 0.739667,-0.145078 1.105616,-0.145078 0.513888,0 1.021889,0.0941 1.527974,0.288195 0.866219,0.352894 1.54748,0.929282 2.038013,1.735053 L 59.991096,47.876996 77.25457,19.14372 c 0.492448,-0.805771 1.173841,-1.382159 2.040138,-1.735053 z m 40.298482,2.105591 c 0.49053,-1.039074 1.37426,-2.393786 3.77252,-2.393786 2.17424,0 3.28368,1.354712 3.77591,2.393786 l 19.94606,42.531182 c 0.49436,1.041003 0.54664,2.109636 0.16153,3.207597 -0.38555,1.097953 -1.09414,1.895814 -2.12578,2.393575 -1.02953,0.496062 -2.08839,0.549189 -3.17656,0.162802 -1.08819,-0.390217 -1.88053,-1.105606 -2.37277,-2.144911 L 123.36741,31.122455 107.15687,65.664503 c -0.49223,1.039305 -1.28073,1.754694 -2.36891,2.144911 -1.0899,0.386387 -2.15087,0.33326 -3.18039,-0.162802 -1.03165,-0.497761 -1.740248,-1.295622 -2.12579,-2.393575 -0.385115,-1.097961 -0.330699,-2.166594 0.161958,-3.207597 z m 47.35979,5.065962 c 4.94825,-4.973818 10.89458,-7.459748 17.84578,-7.459748 6.52443,0 12.20253,2.211456 17.03177,6.640257 0.84844,0.784215 1.29605,1.758559 1.3428,2.927046 0.0451,1.166475 -0.3171,2.176147 -1.09754,3.034877 -0.7749,0.878287 -1.74024,1.342931 -2.89643,1.391939 -1.1545,0.04511 -2.15469,-0.323472 -3.00356,-1.107688 -3.20376,-2.952508 -6.99371,-4.426825 -11.37704,-4.426825 -4.64051,0 -8.61153,1.664497 -11.9088,4.997358 -3.29728,3.330901 -4.94614,7.34013 -4.94614,12.027739 0,4.726794 1.64886,8.734071 4.94614,12.066932 3.29727,3.330901 7.26829,4.995485 11.9088,4.995485 4.38333,0 8.17328,-1.472444 11.37704,-4.426955 0.84887,-0.782213 1.84906,-1.152751 3.00356,-1.103735 1.15619,0.04702 2.12153,0.509743 2.89643,1.389981 0.78044,0.860689 1.1426,1.868401 1.09754,3.034885 -0.0468,1.166606 -0.49436,2.142995 -1.3428,2.927255 -4.82924,4.426694 -10.50734,6.640049 -17.03177,6.640049 -6.9512,0 -12.89753,-2.485825 -17.84578,-7.459584 -4.92276,-4.997523 -7.38307,-11.006468 -7.38307,-18.027078 0,-7.055887 2.46031,-13.064833 7.38307,-18.06219 z m 87.8028,-6.236387 c 0.80763,-0.815574 1.7751,-1.223361 2.9062,-1.223361 1.12901,0 2.09816,0.407787 2.9058,1.223361 0.80806,0.817532 1.21273,1.797788 1.21273,2.940763 v 42.680473 c 0,1.143017 -0.40467,2.124928 -1.21273,2.938516 -0.80764,0.817836 -1.77679,1.225487 -2.9058,1.225487 -1.1311,0 -2.09857,-0.407651 -2.9062,-1.225487 -0.80976,-0.813588 -1.2106,-1.795499 -1.2106,-2.938516 V 47.210398 h -25.43332 v 16.754671 c 0,1.143017 -0.39319,2.124928 -1.17532,2.938516 -0.80807,0.817836 -1.77723,1.225487 -2.90622,1.225487 -1.13281,0 -2.10028,-0.407651 -2.90622,-1.225487 -0.80764,-0.813588 -1.21272,-1.795499 -1.21272,-2.938516 V 21.284596 c 0,-1.142975 0.40508,-2.123231 1.21272,-2.940763 0.80594,-0.815574 1.77341,-1.223361 2.90622,-1.223361 1.12899,0 2.09815,0.407787 2.90622,1.223361 0.78213,0.817532 1.17532,1.797788 1.17532,2.940763 v 17.632827 h 25.43332 V 21.284596 c 0,-1.142975 0.40084,-2.123231 1.2106,-2.940763 z"
   id="path2" /></svg>